<?xml version="1.0" standalone="no"?><!DOCTYPE svg PUBLIC "-//W3C//DTD SVG 1.1//EN" "http://www.w3.org/Graphics/SVG/1.1/DTD/svg11.dtd"><svg t="1738721255405" class="icon" viewBox="0 0 1024 1024" version="1.1" xmlns="http://www.w3.org/2000/svg" p-id="1737" xmlns:xlink="http://www.w3.org/1999/xlink" width="200" height="200"><path d="M256.995945 258.520924V345.675147h58.786818v-64.692352zM707.886591 258.520924V345.675147h-58.786818v-64.692352z" fill="#F0B582" p-id="1738"></path><path d="M789.423843 643.264376L482.654685 647.264188 175.883523 643.264376 75.980399 691.350294v332.649706h813.346568V691.350294z" fill="#C8D1DA" p-id="1739"></path><path d="M121.733761 719.872L181.09971 691.350294h658.087327l50.13993 4.570927V691.350294l-99.903124-48.085918L482.654685 647.264188 175.883523 643.264376 75.980399 691.350294v332.649706h45.753362z" fill="#92A2B5" p-id="1740"></path><path d="M782.025393 647.264188h-135.268195v134.262231l-165.322897 215.747381L316.115413 781.526419v-134.262231h-135.264188L136.767123 504.986301l179.01564-38.07236V510.998043l42.304626 44.545002h247.391186L647.093855 510.998043v-44.084102L828.111405 504.986301z" fill="#92A2B5" p-id="1741"></path><path d="M828.289753 693.853182m-119.731851 0a119.731851 119.731851 0 1 0 239.463703 0 119.731851 119.731851 0 1 0-239.463703 0Z" fill="#CAD8EB" p-id="1742"></path><path d="M361.205479 556.436791l120.23283 327.279217 120.234834-327.279217" fill="#FFFFFF" p-id="1743"></path><path d="M615.70054 15.029354h-267.522505l-34.399186 181.364227h337.326842z" fill="#C8D1DA" p-id="1744"></path><path d="M365.758372 151.638168L391.670982 15.029354h-43.492947l-34.399186 181.364227h337.326842l-8.737065-44.755413z" fill="#92A2B5" p-id="1745"></path><path d="M315.782763 278.550043V510.998043l45.422716 45.438748h240.467664L647.093855 510.998043V278.550043L481.438309 330.645793z" fill="#F5D9AB" p-id="1746"></path><path d="M357.891006 335.31892l124.763679 39.236634L647.093855 324.634051v-46.084008L481.438309 330.645793l-165.655546-52.09575V510.998043l42.108243 42.124274z" fill="#F0B582" p-id="1747"></path><path d="M210.909933 244.481503l270.528376 86.16429 270.528376-86.16429v-7.779194l-90.176125-40.308728h-360.704501l-90.176126 40.308728z" fill="#92A2B5" p-id="1748"></path><path d="M316.115413 232.450004l72.23308-36.056423h-87.262434l-90.176126 40.308728v7.779194l270.528376 86.16429 75.146771-20.764556z" fill="#61748B" p-id="1749"></path><path d="M325.513769 136.530661h314.281832v59.86292H325.513769z" fill="#5FA6B0" p-id="1750"></path><path d="M325.513769 136.530661v59.86292h29.677965l11.02353-59.86292z" fill="#3D7077" p-id="1751"></path><path d="M391.262184 631.232877l90.176125-68.780337 90.176125 68.780337-39.196555 111.096986-49.763194-75.022528-52.193941 75.022528z" fill="#CAD8EB" p-id="1752"></path><path d="M430.460744 742.329863l50.977565-75.022528 50.97957 75.022528-50.97957 141.386145zM541.555726 601.174168l-60.117417 60.117417-60.117417-60.117417 60.117417-38.721628z" fill="#5FA6B0" p-id="1753"></path><path d="M707.886591 827.608423h58.776798v120.234833h-58.776798z" fill="#F0B582" p-id="1754"></path><path d="M766.663389 827.608423h120.904141v180.370285h-120.904141z" fill="#F5D9AB" p-id="1755"></path><path d="M751.634035 661.291585h30.058709v58.78281h-30.058709zM783.029354 631.232877h30.058709v30.058708h-30.058709z" fill="#FFFFFF" p-id="1756"></path><path d="M60.951045 240.469667h30.058708v30.058709h-30.058708zM872.11535 240.469667h30.058709v30.058709h-30.058709z" fill="#FAEF93" p-id="1757"></path><path d="M421.320892 451.884587h120.234834v30.058708h-120.234834zM541.55773 121.501307h30.058708v30.058709h-30.058708zM60.951045 841.643836h30.058708v182.356164h-30.058708zM60.951045 781.528423h30.058708v30.058708h-30.058708z" p-id="1758"></path><path d="M963.050959 693.518528c0-41.627303-18.76465-80.306849-51.482552-106.11726l-18.61636 23.59809c25.445699 20.075209 40.040204 50.151953 40.040203 82.51917 0 57.917119-47.120031 105.039155-105.039154 105.039155s-105.039155-47.120031-105.039155-105.039155 47.120031-105.039155 105.039155-105.039154c13.376125 0 26.399562 2.474834 38.707601 7.358372l11.081644-27.940572c-15.852963-6.288282-32.603679-9.476509-49.791249-9.476509-0.456892 0-0.905769 0.030059-1.362661 0.034067l20.956931-64.700368-185.424157-39.437025V360.704501h60.790732v-91.198121l44.082098-14.039421v-28.509683l-101.999217-45.591045L628.08072 0H335.731726l-37.85193 181.364227-101.999217 45.591045v28.509683l46.086012 14.678669V360.704501h58.786818v93.636885L117.549589 493.748352l43.388744 140.031499-99.987288 48.128V751.46771h30.058708v-32.469416l120.230826 114.39142V1024h30.058709V820.50054L107.263499 692.973464l63.736485-30.679922h130.086075V721.409002h30.058708v-89.174168H191.928861L155.984658 516.226254l144.770755-31.138818v32.134764l47.48274 47.500775 133.20216 362.576156 133.200157-362.576156 47.482739-47.498771v-32.172838l146.552235 31.168877-15.111514 46.651115c-37.497237 9.877292-68.640063 35.51737-85.947867 69.36548h-75.88822v144.195632l-150.293542 196.133072-150.289534-196.133072v-24.962756h-30.058708v35.152658l180.348242 235.359687 180.352251-235.359687V662.293542h34.751875a134.897472 134.897472 0 0 0-3.68119 31.222982c0 51.442474 28.908462 96.249988 71.327311 119.062544h-71.327311v150.293543h58.776798v60.135452h150.96285V812.579068h-10.873237c42.418849-22.810552 71.327311-67.618067 71.327311-119.06054zM692.857237 330.645793h-30.732024v-41.777597l30.732024-9.78912zM337.579335 151.560016h173.917683v-30.058709h-168.216548L360.624344 30.058708h242.69802l17.850865 91.442599h-19.498082v30.058709h25.367546l5.817362 29.806215H331.926294z m-33.287014 59.862919h354.291976l61.433989 27.459633-238.579977 75.990418-238.579976-75.990418zM272.025299 330.645793v-50.927468l28.72811 9.149871V330.645793z m176.121989 276.10126l33.291021-25.393597 33.291022 25.393597-33.291022 33.291021z m-24.1151 18.393925l40.420947 40.420948-30.601769 45.03596-26.672094-72.603804z m114.812243 0l16.854919 12.855108-26.672094 72.603804-30.603773-45.03596z m-20.806638-53.674833h62.103295l-13.592548 37.000266z m-121.707711 37.000266l-13.592548-37.000266h62.101292z m50.274192 136.845276l34.834035-51.264125 34.834035 51.264125-34.834035 94.821198z m148.842708-203.904251H367.43164l-36.619523-36.631546V298.442896l150.626192 47.975703 150.626192-47.975703v206.33099z m186.245762 301.230341h90.845432v30.058708h-90.845432z m-58.776799 90.176125v-90.176125h28.71809v90.176125z m149.622231 60.135452h-90.845432v-30.076743h90.845432z m0-60.135452h-90.845432v-30.058708h90.845432z" p-id="1759"></path><path d="M121.737769 390.763209h30.058708v-29.303232h29.303233v-30.058709H151.796477v-29.303233h-30.058708v29.303233H92.434536v30.058709H121.737769zM811.328626 390.763209h30.058709v-29.303232h29.303233v-30.058709h-29.303233v-29.303233h-30.058709v29.303233h-29.303233v30.058709h29.303233z" p-id="1760"></path></svg>